<?xml version="1.0" encoding="UTF-8" standalone="no"?>
<!-- Created with Inkscape (http://www.inkscape.org/) -->

<svg
   xmlns:dc="http://purl.org/dc/elements/1.1/"
   xmlns:cc="http://creativecommons.org/ns#"
   xmlns:rdf="http://www.w3.org/1999/02/22-rdf-syntax-ns#"
   xmlns:svg="http://www.w3.org/2000/svg"
   xmlns="http://www.w3.org/2000/svg"
   version="1.1"
   width="560"
   height="421.25"
   id="svg2"
   xml:space="preserve"><metadata
     id="metadata8"><rdf:RDF><cc:Work
         rdf:about=""><dc:format>image/svg+xml</dc:format><dc:type
           rdf:resource="http://purl.org/dc/dcmitype/StillImage" /><dc:title></dc:title></cc:Work></rdf:RDF></metadata><defs
     id="defs6"><clipPath
       id="clipPath18"><path
         d="m 0,9.16797 4480,0 0,3360.83003 -4480,0 L 0,9.16797 z"
         id="path20" /></clipPath><clipPath
       id="clipPath252"><path
         d="m 582.5,378.332 3472.5,0 0,2740 -3472.5,0 0,-2740 z"
         id="path254" /></clipPath><clipPath
       id="clipPath342"><path
         d="m 0,9.16797 4480,0 0,3360.83003 -4480,0 L 0,9.16797 z"
         id="path344" /></clipPath><clipPath
       id="clipPath390"><path
         d="m 1014.17,2534.17 1005,0 0,317.5 -1005,0 0,-317.5 z"
         id="path392" /></clipPath><clipPath
       id="clipPath402"><path
         d="m 0,9.16797 4480,0 0,3360.83003 -4480,0 L 0,9.16797 z"
         id="path404" /></clipPath><clipPath
       id="clipPath416"><path
         d="m 1014.17,2534.17 1005,0 0,317.5 -1005,0 0,-317.5 z"
         id="path418" /></clipPath></defs><g
     transform="matrix(1.25,0,0,-1.25,0,421.25)"
     id="g10"><g
       transform="scale(0.1,0.1)"
       id="g12"><g
         id="g14"><g
           clip-path="url(#clipPath18)"
           id="g16"><path
             d="m 0,9 4480,0 0,3361 L 0,3370 0,9 z"
             id="path22"
             style="fill:#ffffff;fill-opacity:1;fill-rule:nonzero;stroke:none" /><path
             d="m 582.5,379.168 3471.67,0 0,2739.16 -3471.67,0 0,-2739.16 z"
             id="path24"
             style="fill:#ffffff;fill-opacity:1;fill-rule:evenodd;stroke:none" /><path
             d="m 582.5,379.168 0,2739.162 3471.67,0 0,-2739.162 -3471.67,0"
             id="path26"
             style="fill:none;stroke:#ffffff;stroke-width:5;stroke-linecap:butt;stroke-linejoin:round;stroke-miterlimit:10;stroke-opacity:1;stroke-dasharray:none" /><path
             d="m 582.5,379.168 3471.67,0"
             id="path28"
             style="fill:none;stroke:#000000;stroke-width:5;stroke-linecap:butt;stroke-linejoin:round;stroke-miterlimit:10;stroke-opacity:1;stroke-dasharray:none" /><path
             d="m 582.5,3118.33 3471.67,0"
             id="path30"
             style="fill:none;stroke:#000000;stroke-width:5;stroke-linecap:butt;stroke-linejoin:round;stroke-miterlimit:10;stroke-opacity:1;stroke-dasharray:none" /><path
             d="m 582.5,379.168 0,2739.162"
             id="path32"
             style="fill:none;stroke:#000000;stroke-width:5;stroke-linecap:butt;stroke-linejoin:round;stroke-miterlimit:10;stroke-opacity:1;stroke-dasharray:none" /><path
             d="m 4054.17,379.168 0,2739.162"
             id="path34"
             style="fill:none;stroke:#000000;stroke-width:5;stroke-linecap:butt;stroke-linejoin:round;stroke-miterlimit:10;stroke-opacity:1;stroke-dasharray:none" /><path
             d="m 582.5,379.168 3471.67,0"
             id="path36"
             style="fill:none;stroke:#000000;stroke-width:5;stroke-linecap:butt;stroke-linejoin:round;stroke-miterlimit:10;stroke-opacity:1;stroke-dasharray:none" /><path
             d="m 582.5,379.168 0,2739.162"
             id="path38"
             style="fill:none;stroke:#000000;stroke-width:5;stroke-linecap:butt;stroke-linejoin:round;stroke-miterlimit:10;stroke-opacity:1;stroke-dasharray:none" /><path
             d="m 871.668,379.168 0,35"
             id="path40"
             style="fill:none;stroke:#000000;stroke-width:5;stroke-linecap:butt;stroke-linejoin:round;stroke-miterlimit:10;stroke-opacity:1;stroke-dasharray:none" /><path
             d="m 871.668,3118.33 0,-34.16"
             id="path42"
             style="fill:none;stroke:#000000;stroke-width:5;stroke-linecap:butt;stroke-linejoin:round;stroke-miterlimit:10;stroke-opacity:1;stroke-dasharray:none" /><g
             transform="scale(10,10)"
             id="g44"><text
               transform="matrix(1,0,0,-1,84.4168,25.8332)"
               id="text46"><tspan
                 x="0"
                 y="0"
                 id="tspan48"
                 style="font-size:10px;font-variant:normal;font-weight:normal;writing-mode:lr-tb;fill:#000000;fill-opacity:1;fill-rule:nonzero;stroke:none;font-family:Helvetica;-inkscape-font-specification:Helvetica">1</tspan></text>
</g><path
             d="m 1160.83,379.168 0,35"
             id="path50"
             style="fill:none;stroke:#000000;stroke-width:5;stroke-linecap:butt;stroke-linejoin:round;stroke-miterlimit:10;stroke-opacity:1;stroke-dasharray:none" /><path
             d="m 1160.83,3118.33 0,-34.16"
             id="path52"
             style="fill:none;stroke:#000000;stroke-width:5;stroke-linecap:butt;stroke-linejoin:round;stroke-miterlimit:10;stroke-opacity:1;stroke-dasharray:none" /><g
             transform="scale(10,10)"
             id="g54"><text
               transform="matrix(1,0,0,-1,113.333,25.8332)"
               id="text56"><tspan
                 x="0"
                 y="0"
                 id="tspan58"
                 style="font-size:10px;font-variant:normal;font-weight:normal;writing-mode:lr-tb;fill:#000000;fill-opacity:1;fill-rule:nonzero;stroke:none;font-family:Helvetica;-inkscape-font-specification:Helvetica">2</tspan></text>
</g><path
             d="m 1450,379.168 0,35"
             id="path60"
             style="fill:none;stroke:#000000;stroke-width:5;stroke-linecap:butt;stroke-linejoin:round;stroke-miterlimit:10;stroke-opacity:1;stroke-dasharray:none" /><path
             d="m 1450,3118.33 0,-34.16"
             id="path62"
             style="fill:none;stroke:#000000;stroke-width:5;stroke-linecap:butt;stroke-linejoin:round;stroke-miterlimit:10;stroke-opacity:1;stroke-dasharray:none" /><g
             transform="scale(10,10)"
             id="g64"><text
               transform="matrix(1,0,0,-1,142.25,25.8332)"
               id="text66"><tspan
                 x="0"
                 y="0"
                 id="tspan68"
                 style="font-size:10px;font-variant:normal;font-weight:normal;writing-mode:lr-tb;fill:#000000;fill-opacity:1;fill-rule:nonzero;stroke:none;font-family:Helvetica;-inkscape-font-specification:Helvetica">3</tspan></text>
</g><path
             d="m 1739.17,379.168 0,35"
             id="path70"
             style="fill:none;stroke:#000000;stroke-width:5;stroke-linecap:butt;stroke-linejoin:round;stroke-miterlimit:10;stroke-opacity:1;stroke-dasharray:none" /><path
             d="m 1739.17,3118.33 0,-34.16"
             id="path72"
             style="fill:none;stroke:#000000;stroke-width:5;stroke-linecap:butt;stroke-linejoin:round;stroke-miterlimit:10;stroke-opacity:1;stroke-dasharray:none" /><g
             transform="scale(10,10)"
             id="g74"><text
               transform="matrix(1,0,0,-1,171.167,25.8332)"
               id="text76"><tspan
                 x="0"
                 y="0"
                 id="tspan78"
                 style="font-size:10px;font-variant:normal;font-weight:normal;writing-mode:lr-tb;fill:#000000;fill-opacity:1;fill-rule:nonzero;stroke:none;font-family:Helvetica;-inkscape-font-specification:Helvetica">4</tspan></text>
</g><path
             d="m 2028.33,379.168 0,35"
             id="path80"
             style="fill:none;stroke:#000000;stroke-width:5;stroke-linecap:butt;stroke-linejoin:round;stroke-miterlimit:10;stroke-opacity:1;stroke-dasharray:none" /><path
             d="m 2028.33,3118.33 0,-34.16"
             id="path82"
             style="fill:none;stroke:#000000;stroke-width:5;stroke-linecap:butt;stroke-linejoin:round;stroke-miterlimit:10;stroke-opacity:1;stroke-dasharray:none" /><g
             transform="scale(10,10)"
             id="g84"><text
               transform="matrix(1,0,0,-1,200.083,25.8332)"
               id="text86"><tspan
                 x="0"
                 y="0"
                 id="tspan88"
                 style="font-size:10px;font-variant:normal;font-weight:normal;writing-mode:lr-tb;fill:#000000;fill-opacity:1;fill-rule:nonzero;stroke:none;font-family:Helvetica;-inkscape-font-specification:Helvetica">5</tspan></text>
</g><path
             d="m 2318.33,379.168 0,35"
             id="path90"
             style="fill:none;stroke:#000000;stroke-width:5;stroke-linecap:butt;stroke-linejoin:round;stroke-miterlimit:10;stroke-opacity:1;stroke-dasharray:none" /><path
             d="m 2318.33,3118.33 0,-34.16"
             id="path92"
             style="fill:none;stroke:#000000;stroke-width:5;stroke-linecap:butt;stroke-linejoin:round;stroke-miterlimit:10;stroke-opacity:1;stroke-dasharray:none" /><g
             transform="scale(10,10)"
             id="g94"><text
               transform="matrix(1,0,0,-1,229.083,25.8332)"
               id="text96"><tspan
                 x="0"
                 y="0"
                 id="tspan98"
                 style="font-size:10px;font-variant:normal;font-weight:normal;writing-mode:lr-tb;fill:#000000;fill-opacity:1;fill-rule:nonzero;stroke:none;font-family:Helvetica;-inkscape-font-specification:Helvetica">6</tspan></text>
</g><path
             d="m 2607.5,379.168 0,35"
             id="path100"
             style="fill:none;stroke:#000000;stroke-width:5;stroke-linecap:butt;stroke-linejoin:round;stroke-miterlimit:10;stroke-opacity:1;stroke-dasharray:none" /><path
             d="m 2607.5,3118.33 0,-34.16"
             id="path102"
             style="fill:none;stroke:#000000;stroke-width:5;stroke-linecap:butt;stroke-linejoin:round;stroke-miterlimit:10;stroke-opacity:1;stroke-dasharray:none" /><g
             transform="scale(10,10)"
             id="g104"><text
               transform="matrix(1,0,0,-1,258,25.8332)"
               id="text106"><tspan
                 x="0"
                 y="0"
                 id="tspan108"
                 style="font-size:10px;font-variant:normal;font-weight:normal;writing-mode:lr-tb;fill:#000000;fill-opacity:1;fill-rule:nonzero;stroke:none;font-family:Helvetica;-inkscape-font-specification:Helvetica">7</tspan></text>
</g><path
             d="m 2896.67,379.168 0,35"
             id="path110"
             style="fill:none;stroke:#000000;stroke-width:5;stroke-linecap:butt;stroke-linejoin:round;stroke-miterlimit:10;stroke-opacity:1;stroke-dasharray:none" /><path
             d="m 2896.67,3118.33 0,-34.16"
             id="path112"
             style="fill:none;stroke:#000000;stroke-width:5;stroke-linecap:butt;stroke-linejoin:round;stroke-miterlimit:10;stroke-opacity:1;stroke-dasharray:none" /><g
             transform="scale(10,10)"
             id="g114"><text
               transform="matrix(1,0,0,-1,286.917,25.8332)"
               id="text116"><tspan
                 x="0"
                 y="0"
                 id="tspan118"
                 style="font-size:10px;font-variant:normal;font-weight:normal;writing-mode:lr-tb;fill:#000000;fill-opacity:1;fill-rule:nonzero;stroke:none;font-family:Helvetica;-inkscape-font-specification:Helvetica">8</tspan></text>
</g><path
             d="m 3185.83,379.168 0,35"
             id="path120"
             style="fill:none;stroke:#000000;stroke-width:5;stroke-linecap:butt;stroke-linejoin:round;stroke-miterlimit:10;stroke-opacity:1;stroke-dasharray:none" /><path
             d="m 3185.83,3118.33 0,-34.16"
             id="path122"
             style="fill:none;stroke:#000000;stroke-width:5;stroke-linecap:butt;stroke-linejoin:round;stroke-miterlimit:10;stroke-opacity:1;stroke-dasharray:none" /><g
             transform="scale(10,10)"
             id="g124"><text
               transform="matrix(1,0,0,-1,315.833,25.8332)"
               id="text126"><tspan
                 x="0"
                 y="0"
                 id="tspan128"
                 style="font-size:10px;font-variant:normal;font-weight:normal;writing-mode:lr-tb;fill:#000000;fill-opacity:1;fill-rule:nonzero;stroke:none;font-family:Helvetica;-inkscape-font-specification:Helvetica">9</tspan></text>
</g><path
             d="m 3475,379.168 0,35"
             id="path130"
             style="fill:none;stroke:#000000;stroke-width:5;stroke-linecap:butt;stroke-linejoin:round;stroke-miterlimit:10;stroke-opacity:1;stroke-dasharray:none" /><path
             d="m 3475,3118.33 0,-34.16"
             id="path132"
             style="fill:none;stroke:#000000;stroke-width:5;stroke-linecap:butt;stroke-linejoin:round;stroke-miterlimit:10;stroke-opacity:1;stroke-dasharray:none" /><g
             transform="scale(10,10)"
             id="g134"><text
               transform="matrix(1,0,0,-1,342,25.8332)"
               id="text136"><tspan
                 x="0 5.5599999"
                 y="0"
                 id="tspan138"
                 style="font-size:10px;font-variant:normal;font-weight:normal;writing-mode:lr-tb;fill:#000000;fill-opacity:1;fill-rule:nonzero;stroke:none;font-family:Helvetica;-inkscape-font-specification:Helvetica">10</tspan></text>
</g><path
             d="m 582.5,379.168 34.168,0"
             id="path140"
             style="fill:none;stroke:#000000;stroke-width:5;stroke-linecap:butt;stroke-linejoin:round;stroke-miterlimit:10;stroke-opacity:1;stroke-dasharray:none" /><path
             d="m 4054.17,379.168 -35,0"
             id="path142"
             style="fill:none;stroke:#000000;stroke-width:5;stroke-linecap:butt;stroke-linejoin:round;stroke-miterlimit:10;stroke-opacity:1;stroke-dasharray:none" /><g
             transform="scale(10,10)"
             id="g144"><text
               transform="matrix(1,0,0,-1,49.8332,34.25)"
               id="text146"><tspan
                 x="0"
                 y="0"
                 id="tspan148"
                 style="font-size:10px;font-variant:normal;font-weight:normal;writing-mode:lr-tb;fill:#000000;fill-opacity:1;fill-rule:nonzero;stroke:none;font-family:Helvetica;-inkscape-font-specification:Helvetica">0</tspan></text>
</g><path
             d="m 582.5,684.168 34.168,0"
             id="path150"
             style="fill:none;stroke:#000000;stroke-width:5;stroke-linecap:butt;stroke-linejoin:round;stroke-miterlimit:10;stroke-opacity:1;stroke-dasharray:none" /><path
             d="m 4054.17,684.168 -35,0"
             id="path152"
             style="fill:none;stroke:#000000;stroke-width:5;stroke-linecap:butt;stroke-linejoin:round;stroke-miterlimit:10;stroke-opacity:1;stroke-dasharray:none" /><g
             transform="scale(10,10)"
             id="g154"><text
               transform="matrix(1,0,0,-1,38.6668,64.75)"
               id="text156"><tspan
                 x="0 5.5599999 11.12"
                 y="0"
                 id="tspan158"
                 style="font-size:10px;font-variant:normal;font-weight:normal;writing-mode:lr-tb;fill:#000000;fill-opacity:1;fill-rule:nonzero;stroke:none;font-family:Helvetica;-inkscape-font-specification:Helvetica">500</tspan></text>
</g><path
             d="m 582.5,988.332 34.168,0"
             id="path160"
             style="fill:none;stroke:#000000;stroke-width:5;stroke-linecap:butt;stroke-linejoin:round;stroke-miterlimit:10;stroke-opacity:1;stroke-dasharray:none" /><path
             d="m 4054.17,988.332 -35,0"
             id="path162"
             style="fill:none;stroke:#000000;stroke-width:5;stroke-linecap:butt;stroke-linejoin:round;stroke-miterlimit:10;stroke-opacity:1;stroke-dasharray:none" /><g
             transform="scale(10,10)"
             id="g164"><text
               transform="matrix(1,0,0,-1,33.1668,95.1668)"
               id="text166"><tspan
                 x="0 5.5599999 11.12 16.68"
                 y="0"
                 id="tspan168"
                 style="font-size:10px;font-variant:normal;font-weight:normal;writing-mode:lr-tb;fill:#000000;fill-opacity:1;fill-rule:nonzero;stroke:none;font-family:Helvetica;-inkscape-font-specification:Helvetica">1000</tspan></text>
</g><path
             d="m 582.5,1292.5 34.168,0"
             id="path170"
             style="fill:none;stroke:#000000;stroke-width:5;stroke-linecap:butt;stroke-linejoin:round;stroke-miterlimit:10;stroke-opacity:1;stroke-dasharray:none" /><path
             d="m 4054.17,1292.5 -35,0"
             id="path172"
             style="fill:none;stroke:#000000;stroke-width:5;stroke-linecap:butt;stroke-linejoin:round;stroke-miterlimit:10;stroke-opacity:1;stroke-dasharray:none" /><g
             transform="scale(10,10)"
             id="g174"><text
               transform="matrix(1,0,0,-1,33.1668,125.583)"
               id="text176"><tspan
                 x="0 5.5599999 11.12 16.68"
                 y="0"
                 id="tspan178"
                 style="font-size:10px;font-variant:normal;font-weight:normal;writing-mode:lr-tb;fill:#000000;fill-opacity:1;fill-rule:nonzero;stroke:none;font-family:Helvetica;-inkscape-font-specification:Helvetica">1500</tspan></text>
</g><path
             d="m 582.5,1596.67 34.168,0"
             id="path180"
             style="fill:none;stroke:#000000;stroke-width:5;stroke-linecap:butt;stroke-linejoin:round;stroke-miterlimit:10;stroke-opacity:1;stroke-dasharray:none" /><path
             d="m 4054.17,1596.67 -35,0"
             id="path182"
             style="fill:none;stroke:#000000;stroke-width:5;stroke-linecap:butt;stroke-linejoin:round;stroke-miterlimit:10;stroke-opacity:1;stroke-dasharray:none" /><g
             transform="scale(10,10)"
             id="g184"><text
               transform="matrix(1,0,0,-1,33.1668,156)"
               id="text186"><tspan
                 x="0 5.5599999 11.12 16.68"
                 y="0"
                 id="tspan188"
                 style="font-size:10px;font-variant:normal;font-weight:normal;writing-mode:lr-tb;fill:#000000;fill-opacity:1;fill-rule:nonzero;stroke:none;font-family:Helvetica;-inkscape-font-specification:Helvetica">2000</tspan></text>
</g><path
             d="m 582.5,1901.67 34.168,0"
             id="path190"
             style="fill:none;stroke:#000000;stroke-width:5;stroke-linecap:butt;stroke-linejoin:round;stroke-miterlimit:10;stroke-opacity:1;stroke-dasharray:none" /><path
             d="m 4054.17,1901.67 -35,0"
             id="path192"
             style="fill:none;stroke:#000000;stroke-width:5;stroke-linecap:butt;stroke-linejoin:round;stroke-miterlimit:10;stroke-opacity:1;stroke-dasharray:none" /><g
             transform="scale(10,10)"
             id="g194"><text
               transform="matrix(1,0,0,-1,33.1668,186.5)"
               id="text196"><tspan
                 x="0 5.5599999 11.12 16.68"
                 y="0"
                 id="tspan198"
                 style="font-size:10px;font-variant:normal;font-weight:normal;writing-mode:lr-tb;fill:#000000;fill-opacity:1;fill-rule:nonzero;stroke:none;font-family:Helvetica;-inkscape-font-specification:Helvetica">2500</tspan></text>
</g><path
             d="m 582.5,2205.83 34.168,0"
             id="path200"
             style="fill:none;stroke:#000000;stroke-width:5;stroke-linecap:butt;stroke-linejoin:round;stroke-miterlimit:10;stroke-opacity:1;stroke-dasharray:none" /><path
             d="m 4054.17,2205.83 -35,0"
             id="path202"
             style="fill:none;stroke:#000000;stroke-width:5;stroke-linecap:butt;stroke-linejoin:round;stroke-miterlimit:10;stroke-opacity:1;stroke-dasharray:none" /><g
             transform="scale(10,10)"
             id="g204"><text
               transform="matrix(1,0,0,-1,33.1668,216.917)"
               id="text206"><tspan
                 x="0 5.5599999 11.12 16.68"
                 y="0"
                 id="tspan208"
                 style="font-size:10px;font-variant:normal;font-weight:normal;writing-mode:lr-tb;fill:#000000;fill-opacity:1;fill-rule:nonzero;stroke:none;font-family:Helvetica;-inkscape-font-specification:Helvetica">3000</tspan></text>
</g><path
             d="m 582.5,2510 34.168,0"
             id="path210"
             style="fill:none;stroke:#000000;stroke-width:5;stroke-linecap:butt;stroke-linejoin:round;stroke-miterlimit:10;stroke-opacity:1;stroke-dasharray:none" /><path
             d="m 4054.17,2510 -35,0"
             id="path212"
             style="fill:none;stroke:#000000;stroke-width:5;stroke-linecap:butt;stroke-linejoin:round;stroke-miterlimit:10;stroke-opacity:1;stroke-dasharray:none" /><g
             transform="scale(10,10)"
             id="g214"><text
               transform="matrix(1,0,0,-1,33.1668,247.333)"
               id="text216"><tspan
                 x="0 5.5599999 11.12 16.68"
                 y="0"
                 id="tspan218"
                 style="font-size:10px;font-variant:normal;font-weight:normal;writing-mode:lr-tb;fill:#000000;fill-opacity:1;fill-rule:nonzero;stroke:none;font-family:Helvetica;-inkscape-font-specification:Helvetica">3500</tspan></text>
</g><path
             d="m 582.5,2814.17 34.168,0"
             id="path220"
             style="fill:none;stroke:#000000;stroke-width:5;stroke-linecap:butt;stroke-linejoin:round;stroke-miterlimit:10;stroke-opacity:1;stroke-dasharray:none" /><path
             d="m 4054.17,2814.17 -35,0"
             id="path222"
             style="fill:none;stroke:#000000;stroke-width:5;stroke-linecap:butt;stroke-linejoin:round;stroke-miterlimit:10;stroke-opacity:1;stroke-dasharray:none" /><g
             transform="scale(10,10)"
             id="g224"><text
               transform="matrix(1,0,0,-1,33.1668,277.75)"
               id="text226"><tspan
                 x="0 5.5599999 11.12 16.68"
                 y="0"
                 id="tspan228"
                 style="font-size:10px;font-variant:normal;font-weight:normal;writing-mode:lr-tb;fill:#000000;fill-opacity:1;fill-rule:nonzero;stroke:none;font-family:Helvetica;-inkscape-font-specification:Helvetica">4000</tspan></text>
</g><path
             d="m 582.5,3118.33 34.168,0"
             id="path230"
             style="fill:none;stroke:#000000;stroke-width:5;stroke-linecap:butt;stroke-linejoin:round;stroke-miterlimit:10;stroke-opacity:1;stroke-dasharray:none" /><path
             d="m 4054.17,3118.33 -35,0"
             id="path232"
             style="fill:none;stroke:#000000;stroke-width:5;stroke-linecap:butt;stroke-linejoin:round;stroke-miterlimit:10;stroke-opacity:1;stroke-dasharray:none" /><g
             transform="scale(10,10)"
             id="g234"><text
               transform="matrix(1,0,0,-1,33.1668,308.167)"
               id="text236"><tspan
                 x="0 5.5599999 11.12 16.68"
                 y="0"
                 id="tspan238"
                 style="font-size:10px;font-variant:normal;font-weight:normal;writing-mode:lr-tb;fill:#000000;fill-opacity:1;fill-rule:nonzero;stroke:none;font-family:Helvetica;-inkscape-font-specification:Helvetica">4500</tspan></text>
</g><path
             d="m 582.5,379.168 3471.67,0"
             id="path240"
             style="fill:none;stroke:#000000;stroke-width:5;stroke-linecap:butt;stroke-linejoin:round;stroke-miterlimit:10;stroke-opacity:1;stroke-dasharray:none" /><path
             d="m 582.5,3118.33 3471.67,0"
             id="path242"
             style="fill:none;stroke:#000000;stroke-width:5;stroke-linecap:butt;stroke-linejoin:round;stroke-miterlimit:10;stroke-opacity:1;stroke-dasharray:none" /><path
             d="m 582.5,379.168 0,2739.162"
             id="path244"
             style="fill:none;stroke:#000000;stroke-width:5;stroke-linecap:butt;stroke-linejoin:round;stroke-miterlimit:10;stroke-opacity:1;stroke-dasharray:none" /><path
             d="m 4054.17,379.168 0,2739.162"
             id="path246"
             style="fill:none;stroke:#000000;stroke-width:5;stroke-linecap:butt;stroke-linejoin:round;stroke-miterlimit:10;stroke-opacity:1;stroke-dasharray:none" /></g></g><g
         id="g248"><g
           clip-path="url(#clipPath252)"
           id="g250"><path
             d="m 796.668,379.168 66.6641,0 0,4.16406 -66.6641,0 0,-4.16406 z"
             id="path256"
             style="fill:#00008f;fill-opacity:1;fill-rule:evenodd;stroke:none" /><path
             d="m 796.668,379.168 0,4.164 66.664,0 0,-4.164 -66.664,0"
             id="path258"
             style="fill:none;stroke:#000000;stroke-width:5;stroke-linecap:butt;stroke-linejoin:round;stroke-miterlimit:10;stroke-opacity:1;stroke-dasharray:none" /><path
             d="m 1086.67,379.168 65.832,0 0,9.16406 -65.832,0 0,-9.16406 z"
             id="path260"
             style="fill:#00008f;fill-opacity:1;fill-rule:evenodd;stroke:none" /><path
             d="m 1086.67,379.168 0,9.164 65.83,0 0,-9.164 -65.83,0"
             id="path262"
             style="fill:none;stroke:#000000;stroke-width:5;stroke-linecap:butt;stroke-linejoin:round;stroke-miterlimit:10;stroke-opacity:1;stroke-dasharray:none" /><path
             d="m 1375.83,379.168 65.8359,0 0,18.332 -65.8359,0 0,-18.332 z"
             id="path264"
             style="fill:#00008f;fill-opacity:1;fill-rule:evenodd;stroke:none" /><path
             d="m 1375.83,379.168 0,18.332 65.84,0 0,-18.332 -65.84,0"
             id="path266"
             style="fill:none;stroke:#000000;stroke-width:5;stroke-linecap:butt;stroke-linejoin:round;stroke-miterlimit:10;stroke-opacity:1;stroke-dasharray:none" /><path
             d="m 1665,379.168 65.832,0 0,38.332 -65.832,0 0,-38.332 z"
             id="path268"
             style="fill:#00008f;fill-opacity:1;fill-rule:evenodd;stroke:none" /><path
             d="m 1665,379.168 0,38.332 65.83,0 0,-38.332 -65.83,0"
             id="path270"
             style="fill:none;stroke:#000000;stroke-width:5;stroke-linecap:butt;stroke-linejoin:round;stroke-miterlimit:10;stroke-opacity:1;stroke-dasharray:none" /><path
             d="m 1954.17,379.168 65.832,0 0,77.5 -65.832,0 0,-77.5 z"
             id="path272"
             style="fill:#00008f;fill-opacity:1;fill-rule:evenodd;stroke:none" /><path
             d="m 1954.17,379.168 0,77.5 65.83,0 0,-77.5 -65.83,0"
             id="path274"
             style="fill:none;stroke:#000000;stroke-width:5;stroke-linecap:butt;stroke-linejoin:round;stroke-miterlimit:10;stroke-opacity:1;stroke-dasharray:none" /><path
             d="m 2243.33,379.168 66.668,0 0,155 -66.668,0 0,-155 z"
             id="path276"
             style="fill:#00008f;fill-opacity:1;fill-rule:evenodd;stroke:none" /><path
             d="m 2243.33,379.168 0,155 66.67,0 0,-155 -66.67,0"
             id="path278"
             style="fill:none;stroke:#000000;stroke-width:5;stroke-linecap:butt;stroke-linejoin:round;stroke-miterlimit:10;stroke-opacity:1;stroke-dasharray:none" /><path
             d="m 2532.5,379.168 66.668,0 0,310.832 -66.668,0 0,-310.832 z"
             id="path280"
             style="fill:#00008f;fill-opacity:1;fill-rule:evenodd;stroke:none" /><path
             d="m 2532.5,379.168 0,310.832 66.67,0 0,-310.832 -66.67,0"
             id="path282"
             style="fill:none;stroke:#000000;stroke-width:5;stroke-linecap:butt;stroke-linejoin:round;stroke-miterlimit:10;stroke-opacity:1;stroke-dasharray:none" /><path
             d="m 2822.5,379.168 65.832,0 0,622.5 -65.832,0 0,-622.5 z"
             id="path284"
             style="fill:#00008f;fill-opacity:1;fill-rule:evenodd;stroke:none" /><path
             d="m 2822.5,379.168 0,622.502 65.83,0 0,-622.502 -65.83,0"
             id="path286"
             style="fill:none;stroke:#000000;stroke-width:5;stroke-linecap:butt;stroke-linejoin:round;stroke-miterlimit:10;stroke-opacity:1;stroke-dasharray:none" /><path
             d="m 3111.67,379.168 65.832,0 0,1245.83 -65.832,0 0,-1245.83 z"
             id="path288"
             style="fill:#00008f;fill-opacity:1;fill-rule:evenodd;stroke:none" /><path
             d="m 3111.67,379.168 0,1245.832 65.83,0 0,-1245.832 -65.83,0"
             id="path290"
             style="fill:none;stroke:#000000;stroke-width:5;stroke-linecap:butt;stroke-linejoin:round;stroke-miterlimit:10;stroke-opacity:1;stroke-dasharray:none" /><path
             d="m 3400.83,379.168 65.8359,0 0,2492.5 -65.8359,0 0,-2492.5 z"
             id="path292"
             style="fill:#00008f;fill-opacity:1;fill-rule:evenodd;stroke:none" /><path
             d="m 3400.83,379.168 0,2492.502 65.84,0 0,-2492.502 -65.84,0"
             id="path294"
             style="fill:none;stroke:#000000;stroke-width:5;stroke-linecap:butt;stroke-linejoin:round;stroke-miterlimit:10;stroke-opacity:1;stroke-dasharray:none" /><path
             d="m 582.5,379.168 3471.67,0"
             id="path296"
             style="fill:none;stroke:#000000;stroke-width:5;stroke-linecap:butt;stroke-linejoin:round;stroke-miterlimit:10;stroke-opacity:1;stroke-dasharray:none" /><path
             d="m 880,379.168 65.832,0 0,4.16406 -65.832,0 0,-4.16406 z"
             id="path298"
             style="fill:#800000;fill-opacity:1;fill-rule:evenodd;stroke:none" /><path
             d="m 880,379.168 0,4.164 65.832,0 0,-4.164 -65.832,0"
             id="path300"
             style="fill:none;stroke:#000000;stroke-width:5;stroke-linecap:butt;stroke-linejoin:round;stroke-miterlimit:10;stroke-opacity:1;stroke-dasharray:none" /><path
             d="m 1169.17,379.168 65.832,0 0,9.16406 -65.832,0 0,-9.16406 z"
             id="path302"
             style="fill:#800000;fill-opacity:1;fill-rule:evenodd;stroke:none" /><path
             d="m 1169.17,379.168 0,9.164 65.83,0 0,-9.164 -65.83,0"
             id="path304"
             style="fill:none;stroke:#000000;stroke-width:5;stroke-linecap:butt;stroke-linejoin:round;stroke-miterlimit:10;stroke-opacity:1;stroke-dasharray:none" /><path
             d="m 1458.33,379.168 65.8359,0 0,18.332 -65.8359,0 0,-18.332 z"
             id="path306"
             style="fill:#800000;fill-opacity:1;fill-rule:evenodd;stroke:none" /><path
             d="m 1458.33,379.168 0,18.332 65.84,0 0,-18.332 -65.84,0"
             id="path308"
             style="fill:none;stroke:#000000;stroke-width:5;stroke-linecap:butt;stroke-linejoin:round;stroke-miterlimit:10;stroke-opacity:1;stroke-dasharray:none" /><path
             d="m 1747.5,379.168 65.832,0 0,38.332 -65.832,0 0,-38.332 z"
             id="path310"
             style="fill:#800000;fill-opacity:1;fill-rule:evenodd;stroke:none" /><path
             d="m 1747.5,379.168 0,38.332 65.83,0 0,-38.332 -65.83,0"
             id="path312"
             style="fill:none;stroke:#000000;stroke-width:5;stroke-linecap:butt;stroke-linejoin:round;stroke-miterlimit:10;stroke-opacity:1;stroke-dasharray:none" /><path
             d="m 2036.67,379.168 66.6641,0 0,77.5 -66.6641,0 0,-77.5 z"
             id="path314"
             style="fill:#800000;fill-opacity:1;fill-rule:evenodd;stroke:none" /><path
             d="m 2036.67,379.168 0,77.5 66.66,0 0,-77.5 -66.66,0"
             id="path316"
             style="fill:none;stroke:#000000;stroke-width:5;stroke-linecap:butt;stroke-linejoin:round;stroke-miterlimit:10;stroke-opacity:1;stroke-dasharray:none" /><path
             d="m 2325.83,379.168 66.668,0 0,155 -66.668,0 0,-155 z"
             id="path318"
             style="fill:#800000;fill-opacity:1;fill-rule:evenodd;stroke:none" /><path
             d="m 2325.83,379.168 0,155 66.67,0 0,-155 -66.67,0"
             id="path320"
             style="fill:none;stroke:#000000;stroke-width:5;stroke-linecap:butt;stroke-linejoin:round;stroke-miterlimit:10;stroke-opacity:1;stroke-dasharray:none" /><path
             d="m 2615.83,379.168 65.8359,0 0,310.832 -65.8359,0 0,-310.832 z"
             id="path322"
             style="fill:#800000;fill-opacity:1;fill-rule:evenodd;stroke:none" /><path
             d="m 2615.83,379.168 0,310.832 65.84,0 0,-310.832 -65.84,0"
             id="path324"
             style="fill:none;stroke:#000000;stroke-width:5;stroke-linecap:butt;stroke-linejoin:round;stroke-miterlimit:10;stroke-opacity:1;stroke-dasharray:none" /><path
             d="m 2905,379.168 65.832,0 0,622.5 -65.832,0 0,-622.5 z"
             id="path326"
             style="fill:#800000;fill-opacity:1;fill-rule:evenodd;stroke:none" /><path
             d="m 2905,379.168 0,622.502 65.83,0 0,-622.502 -65.83,0"
             id="path328"
             style="fill:none;stroke:#000000;stroke-width:5;stroke-linecap:butt;stroke-linejoin:round;stroke-miterlimit:10;stroke-opacity:1;stroke-dasharray:none" /><path
             d="m 3194.17,379.168 65.832,0 0,1245.83 -65.832,0 0,-1245.83 z"
             id="path330"
             style="fill:#800000;fill-opacity:1;fill-rule:evenodd;stroke:none" /><path
             d="m 3194.17,379.168 0,1245.832 65.83,0 0,-1245.832 -65.83,0"
             id="path332"
             style="fill:none;stroke:#000000;stroke-width:5;stroke-linecap:butt;stroke-linejoin:round;stroke-miterlimit:10;stroke-opacity:1;stroke-dasharray:none" /><path
             d="m 3483.33,379.168 65.8359,0 0,2492.5 -65.8359,0 0,-2492.5 z"
             id="path334"
             style="fill:#800000;fill-opacity:1;fill-rule:evenodd;stroke:none" /><path
             d="m 3483.33,379.168 0,2492.502 65.84,0 0,-2492.502 -65.84,0"
             id="path336"
             style="fill:none;stroke:#000000;stroke-width:5;stroke-linecap:butt;stroke-linejoin:round;stroke-miterlimit:10;stroke-opacity:1;stroke-dasharray:none" /></g></g><g
         id="g338"><g
           clip-path="url(#clipPath342)"
           id="g340"><g
             transform="scale(10,10)"
             id="g346"><text
               transform="matrix(1,0,0,-1,194.833,13.9168)"
               id="text348"><tspan
                 x="0 7.2199998 12.78 21.110001 26.67 32.23 35.560001 38.34 43.900002 46.68 49.459999 56.68 58.900002 63.900002 68.900002"
                 y="0"
                 id="tspan350"
                 style="font-size:10px;font-variant:normal;font-weight:normal;writing-mode:lr-tb;fill:#000000;fill-opacity:1;fill-rule:nonzero;stroke:none;font-family:Helvetica;-inkscape-font-specification:Helvetica">Number of Disks</tspan></text>
<text
               transform="matrix(0,1,1,0,26.3332,85.75)"
               id="text352"><tspan
                 x="0 7.2199998 12.78 21.110001 26.67 32.23 35.560001 38.34 43.900002 46.68 49.459999 56.130001 58.91 64.470001 70.029999 75.029999 77.809998 83.919998 89.480003 94.480003 100.04 105.6 108.38 110.6 116.16 118.94 121.72 127.28 132.84 135.62 141.73 143.95 149.50999 155.07001 157.28999 160.07001 166.74001 168.96001 174.52"
                 y="0"
                 id="tspan354"
                 style="font-size:10px;font-variant:normal;font-weight:normal;writing-mode:lr-tb;fill:#000000;fill-opacity:1;fill-rule:nonzero;stroke:none;font-family:Helvetica;-inkscape-font-specification:Helvetica">Number of Steps Taken in the Final Plan</tspan></text>
</g><path
             d="m 1014.17,2535 1004.16,0 0,316.668 -1004.16,0 0,-316.668 z"
             id="path356"
             style="fill:#ffffff;fill-opacity:1;fill-rule:evenodd;stroke:none" /><path
             d="m 1014.17,2535 0,316.67 1004.16,0 0,-316.67 -1004.16,0"
             id="path358"
             style="fill:none;stroke:#ffffff;stroke-width:5;stroke-linecap:butt;stroke-linejoin:round;stroke-miterlimit:10;stroke-opacity:1;stroke-dasharray:none" /><path
             d="m 1014.17,2535 1004.16,0"
             id="path360"
             style="fill:none;stroke:#000000;stroke-width:5;stroke-linecap:butt;stroke-linejoin:round;stroke-miterlimit:10;stroke-opacity:1;stroke-dasharray:none" /><path
             d="m 1014.17,2851.67 1004.16,0"
             id="path362"
             style="fill:none;stroke:#000000;stroke-width:5;stroke-linecap:butt;stroke-linejoin:round;stroke-miterlimit:10;stroke-opacity:1;stroke-dasharray:none" /><path
             d="m 1014.17,2535 0,316.67"
             id="path364"
             style="fill:none;stroke:#000000;stroke-width:5;stroke-linecap:butt;stroke-linejoin:round;stroke-miterlimit:10;stroke-opacity:1;stroke-dasharray:none" /><path
             d="m 2018.33,2535 0,316.67"
             id="path366"
             style="fill:none;stroke:#000000;stroke-width:5;stroke-linecap:butt;stroke-linejoin:round;stroke-miterlimit:10;stroke-opacity:1;stroke-dasharray:none" /><path
             d="m 1014.17,2535 1004.16,0"
             id="path368"
             style="fill:none;stroke:#000000;stroke-width:5;stroke-linecap:butt;stroke-linejoin:round;stroke-miterlimit:10;stroke-opacity:1;stroke-dasharray:none" /><path
             d="m 1014.17,2535 0,316.67"
             id="path370"
             style="fill:none;stroke:#000000;stroke-width:5;stroke-linecap:butt;stroke-linejoin:round;stroke-miterlimit:10;stroke-opacity:1;stroke-dasharray:none" /><path
             d="m 1014.17,2535 1004.16,0"
             id="path372"
             style="fill:none;stroke:#000000;stroke-width:5;stroke-linecap:butt;stroke-linejoin:round;stroke-miterlimit:10;stroke-opacity:1;stroke-dasharray:none" /><path
             d="m 1014.17,2851.67 1004.16,0"
             id="path374"
             style="fill:none;stroke:#000000;stroke-width:5;stroke-linecap:butt;stroke-linejoin:round;stroke-miterlimit:10;stroke-opacity:1;stroke-dasharray:none" /><path
             d="m 1014.17,2535 0,316.67"
             id="path376"
             style="fill:none;stroke:#000000;stroke-width:5;stroke-linecap:butt;stroke-linejoin:round;stroke-miterlimit:10;stroke-opacity:1;stroke-dasharray:none" /><path
             d="m 2018.33,2535 0,316.67"
             id="path378"
             style="fill:none;stroke:#000000;stroke-width:5;stroke-linecap:butt;stroke-linejoin:round;stroke-miterlimit:10;stroke-opacity:1;stroke-dasharray:none" /><g
             transform="scale(10,10)"
             id="g380"><text
               transform="matrix(1,0,0,-1,140.417,272.833)"
               id="text382"><tspan
                 x="0 6.1100001 12.22 15 21.67 23.889999 29.450001 35.009998 40.57 46.130001"
                 y="0"
                 id="tspan384"
                 style="font-size:10px;font-variant:normal;font-weight:normal;writing-mode:lr-tb;fill:#000000;fill-opacity:1;fill-rule:nonzero;stroke:none;font-family:Helvetica;-inkscape-font-specification:Helvetica">FF Planner</tspan></text>
</g></g></g><g
         id="g386"><g
           clip-path="url(#clipPath390)"
           id="g388"><path
             d="m 1074.17,2712.5 300,0 0,103.332 -300,0 0,-103.332 z"
             id="path394"
             style="fill:#00008f;fill-opacity:1;fill-rule:evenodd;stroke:none" /><path
             d="m 1074.17,2712.5 0,103.33 300,0 0,-103.33 -300,0 0,0"
             id="path396"
             style="fill:none;stroke:#000000;stroke-width:5;stroke-linecap:butt;stroke-linejoin:round;stroke-miterlimit:10;stroke-opacity:1;stroke-dasharray:none" /></g></g><g
         id="g398"><g
           clip-path="url(#clipPath402)"
           id="g400"><g
             transform="scale(10,10)"
             id="g406"><text
               transform="matrix(1,0,0,-1,140.417,258.75)"
               id="text408"><tspan
                 x="0 7.2199998 13.33 20.549999 23.33 30 32.220001 37.779999 43.34 48.900002 54.459999"
                 y="0"
                 id="tspan410"
                 style="font-size:10px;font-variant:normal;font-weight:normal;writing-mode:lr-tb;fill:#000000;fill-opacity:1;fill-rule:nonzero;stroke:none;font-family:Helvetica;-inkscape-font-specification:Helvetica">HTN Planner</tspan></text>
</g></g></g><g
         id="g412"><g
           clip-path="url(#clipPath416)"
           id="g414"><path
             d="m 1074.17,2571.67 300,0 0,103.332 -300,0 0,-103.332 z"
             id="path420"
             style="fill:#800000;fill-opacity:1;fill-rule:evenodd;stroke:none" /><path
             d="m 1074.17,2571.67 0,103.33 300,0 0,-103.33 -300,0 0,0"
             id="path422"
             style="fill:none;stroke:#000000;stroke-width:5;stroke-linecap:butt;stroke-linejoin:round;stroke-miterlimit:10;stroke-opacity:1;stroke-dasharray:none" /></g></g></g></g></svg>