<svg height="421.25" id="svg2" version="1.1" width="560" xml:space="preserve" xmlns="http://www.w3.org/2000/svg" xmlns:cc="http://creativecommons.org/ns#" xmlns:dc="http://purl.org/dc/elements/1.1/" xmlns:rdf="http://www.w3.org/1999/02/22-rdf-syntax-ns#" xmlns:svg="http://www.w3.org/2000/svg"><metadata id="metadata8"><rdf:RDF><cc:Work rdf:about=""><dc:format>image/svg+xml</dc:format><dc:type rdf:resource="http://purl.org/dc/dcmitype/StillImage"/><dc:title/></cc:Work></rdf:RDF></metadata><defs id="defs6"><clipPath id="clipPath18"><path d="m 0,9.16797 4480,0 0,3360.83003 -4480,0 L 0,9.16797 z" id="path20"/></clipPath><clipPath id="clipPath262"><path d="m 582.5,378.332 3472.5,0 0,2740 -3472.5,0 0,-2740 z" id="path264"/></clipPath><clipPath id="clipPath274"><path d="m 0,9.16797 4480,0 0,3360.83003 -4480,0 L 0,9.16797 z" id="path276"/></clipPath><clipPath id="clipPath322"><path d="m 3005,2789.17 1000.83,0 0,279.164 -1000.83,0 0,-279.164 z" id="path324"/></clipPath><clipPath id="clipPath332"><path d="m 0,9.16797 4480,0 0,3360.83003 -4480,0 L 0,9.16797 z" id="path334"/></clipPath><clipPath id="clipPath346"><path d="m 3005,2789.17 1000.83,0 0,279.164 -1000.83,0 0,-279.164 z" id="path348"/></clipPath></defs><g id="g10" transform="matrix(1.25,0,0,-1.25,0,421.25)"><g id="g12" transform="scale(0.1,0.1)"><g id="g14"><g clip-path="url(#clipPath18)" id="g16"><path d="m 0,9 4480,0 0,3361 L 0,3370 0,9 z" id="path22" style="fill:#ffffff;fill-opacity:1;fill-rule:nonzero;stroke:none"/><path d="m 582.5,379.168 3471.67,0 0,2740 -3471.67,0 0,-2740 z" id="path24" style="fill:#ffffff;fill-opacity:1;fill-rule:evenodd;stroke:none"/><path d="m 582.5,379.168 0,2740.002 3471.67,0 0,-2740.002 -3471.67,0" id="path26" style="fill:none;stroke:#ffffff;stroke-width:5;stroke-linecap:butt;stroke-linejoin:round;stroke-miterlimit:10;stroke-opacity:1;stroke-dasharray:none"/><path d="m 582.5,379.168 3471.67,0" id="path28" style="fill:none;stroke:#000000;stroke-width:5;stroke-linecap:butt;stroke-linejoin:round;stroke-miterlimit:10;stroke-opacity:1;stroke-dasharray:none"/><path d="m 582.5,3119.17 3471.67,0" id="path30" style="fill:none;stroke:#000000;stroke-width:5;stroke-linecap:butt;stroke-linejoin:round;stroke-miterlimit:10;stroke-opacity:1;stroke-dasharray:none"/><path d="m 582.5,379.168 0,2740.002" id="path32" style="fill:none;stroke:#000000;stroke-width:5;stroke-linecap:butt;stroke-linejoin:round;stroke-miterlimit:10;stroke-opacity:1;stroke-dasharray:none"/><path d="m 4054.17,379.168 0,2740.002" id="path34" style="fill:none;stroke:#000000;stroke-width:5;stroke-linecap:butt;stroke-linejoin:round;stroke-miterlimit:10;stroke-opacity:1;stroke-dasharray:none"/><path d="m 582.5,379.168 3471.67,0" id="path36" style="fill:none;stroke:#000000;stroke-width:5;stroke-linecap:butt;stroke-linejoin:round;stroke-miterlimit:10;stroke-opacity:1;stroke-dasharray:none"/><path d="m 582.5,379.168 0,2740.002" id="path38" style="fill:none;stroke:#000000;stroke-width:5;stroke-linecap:butt;stroke-linejoin:round;stroke-miterlimit:10;stroke-opacity:1;stroke-dasharray:none"/><path d="m 582.5,379.168 0,35" id="path40" style="fill:none;stroke:#000000;stroke-width:5;stroke-linecap:butt;stroke-linejoin:round;stroke-miterlimit:10;stroke-opacity:1;stroke-dasharray:none"/><path d="m 582.5,3118.33 0,-34.16" id="path42" style="fill:none;stroke:#000000;stroke-width:5;stroke-linecap:butt;stroke-linejoin:round;stroke-miterlimit:10;stroke-opacity:1;stroke-dasharray:none"/><g id="g44" transform="scale(10,10)"><text id="text46" transform="matrix(1,0,0,-1,55.5,25.8332)"><tspan id="tspan48" style="font-size:10px;font-variant:normal;font-weight:normal;writing-mode:lr-tb;fill:#000000;fill-opacity:1;fill-rule:nonzero;stroke:none;font-family:Helvetica;-inkscape-font-specification:Helvetica" x="0" y="0">1</tspan></text>
</g><path d="m 967.5,379.168 0,35" id="path50" style="fill:none;stroke:#000000;stroke-width:5;stroke-linecap:butt;stroke-linejoin:round;stroke-miterlimit:10;stroke-opacity:1;stroke-dasharray:none"/><path d="m 967.5,3118.33 0,-34.16" id="path52" style="fill:none;stroke:#000000;stroke-width:5;stroke-linecap:butt;stroke-linejoin:round;stroke-miterlimit:10;stroke-opacity:1;stroke-dasharray:none"/><g id="g54" transform="scale(10,10)"><text id="text56" transform="matrix(1,0,0,-1,94,25.8332)"><tspan id="tspan58" style="font-size:10px;font-variant:normal;font-weight:normal;writing-mode:lr-tb;fill:#000000;fill-opacity:1;fill-rule:nonzero;stroke:none;font-family:Helvetica;-inkscape-font-specification:Helvetica" x="0" y="0">2</tspan></text>
</g><path d="m 1353.33,379.168 0,35" id="path60" style="fill:none;stroke:#000000;stroke-width:5;stroke-linecap:butt;stroke-linejoin:round;stroke-miterlimit:10;stroke-opacity:1;stroke-dasharray:none"/><path d="m 1353.33,3118.33 0,-34.16" id="path62" style="fill:none;stroke:#000000;stroke-width:5;stroke-linecap:butt;stroke-linejoin:round;stroke-miterlimit:10;stroke-opacity:1;stroke-dasharray:none"/><g id="g64" transform="scale(10,10)"><text id="text66" transform="matrix(1,0,0,-1,132.583,25.8332)"><tspan id="tspan68" style="font-size:10px;font-variant:normal;font-weight:normal;writing-mode:lr-tb;fill:#000000;fill-opacity:1;fill-rule:nonzero;stroke:none;font-family:Helvetica;-inkscape-font-specification:Helvetica" x="0" y="0">3</tspan></text>
</g><path d="m 1739.17,379.168 0,35" id="path70" style="fill:none;stroke:#000000;stroke-width:5;stroke-linecap:butt;stroke-linejoin:round;stroke-miterlimit:10;stroke-opacity:1;stroke-dasharray:none"/><path d="m 1739.17,3118.33 0,-34.16" id="path72" style="fill:none;stroke:#000000;stroke-width:5;stroke-linecap:butt;stroke-linejoin:round;stroke-miterlimit:10;stroke-opacity:1;stroke-dasharray:none"/><g id="g74" transform="scale(10,10)"><text id="text76" transform="matrix(1,0,0,-1,171.167,25.8332)"><tspan id="tspan78" style="font-size:10px;font-variant:normal;font-weight:normal;writing-mode:lr-tb;fill:#000000;fill-opacity:1;fill-rule:nonzero;stroke:none;font-family:Helvetica;-inkscape-font-specification:Helvetica" x="0" y="0">4</tspan></text>
</g><path d="m 2125,379.168 0,35" id="path80" style="fill:none;stroke:#000000;stroke-width:5;stroke-linecap:butt;stroke-linejoin:round;stroke-miterlimit:10;stroke-opacity:1;stroke-dasharray:none"/><path d="m 2125,3118.33 0,-34.16" id="path82" style="fill:none;stroke:#000000;stroke-width:5;stroke-linecap:butt;stroke-linejoin:round;stroke-miterlimit:10;stroke-opacity:1;stroke-dasharray:none"/><g id="g84" transform="scale(10,10)"><text id="text86" transform="matrix(1,0,0,-1,209.75,25.8332)"><tspan id="tspan88" style="font-size:10px;font-variant:normal;font-weight:normal;writing-mode:lr-tb;fill:#000000;fill-opacity:1;fill-rule:nonzero;stroke:none;font-family:Helvetica;-inkscape-font-specification:Helvetica" x="0" y="0">5</tspan></text>
</g><path d="m 2510.83,379.168 0,35" id="path90" style="fill:none;stroke:#000000;stroke-width:5;stroke-linecap:butt;stroke-linejoin:round;stroke-miterlimit:10;stroke-opacity:1;stroke-dasharray:none"/><path d="m 2510.83,3118.33 0,-34.16" id="path92" style="fill:none;stroke:#000000;stroke-width:5;stroke-linecap:butt;stroke-linejoin:round;stroke-miterlimit:10;stroke-opacity:1;stroke-dasharray:none"/><g id="g94" transform="scale(10,10)"><text id="text96" transform="matrix(1,0,0,-1,248.333,25.8332)"><tspan id="tspan98" style="font-size:10px;font-variant:normal;font-weight:normal;writing-mode:lr-tb;fill:#000000;fill-opacity:1;fill-rule:nonzero;stroke:none;font-family:Helvetica;-inkscape-font-specification:Helvetica" x="0" y="0">6</tspan></text>
</g><path d="m 2896.67,379.168 0,35" id="path100" style="fill:none;stroke:#000000;stroke-width:5;stroke-linecap:butt;stroke-linejoin:round;stroke-miterlimit:10;stroke-opacity:1;stroke-dasharray:none"/><path d="m 2896.67,3118.33 0,-34.16" id="path102" style="fill:none;stroke:#000000;stroke-width:5;stroke-linecap:butt;stroke-linejoin:round;stroke-miterlimit:10;stroke-opacity:1;stroke-dasharray:none"/><g id="g104" transform="scale(10,10)"><text id="text106" transform="matrix(1,0,0,-1,286.917,25.8332)"><tspan id="tspan108" style="font-size:10px;font-variant:normal;font-weight:normal;writing-mode:lr-tb;fill:#000000;fill-opacity:1;fill-rule:nonzero;stroke:none;font-family:Helvetica;-inkscape-font-specification:Helvetica" x="0" y="0">7</tspan></text>
</g><path d="m 3282.5,379.168 0,35" id="path110" style="fill:none;stroke:#000000;stroke-width:5;stroke-linecap:butt;stroke-linejoin:round;stroke-miterlimit:10;stroke-opacity:1;stroke-dasharray:none"/><path d="m 3282.5,3118.33 0,-34.16" id="path112" style="fill:none;stroke:#000000;stroke-width:5;stroke-linecap:butt;stroke-linejoin:round;stroke-miterlimit:10;stroke-opacity:1;stroke-dasharray:none"/><g id="g114" transform="scale(10,10)"><text id="text116" transform="matrix(1,0,0,-1,325.5,25.8332)"><tspan id="tspan118" style="font-size:10px;font-variant:normal;font-weight:normal;writing-mode:lr-tb;fill:#000000;fill-opacity:1;fill-rule:nonzero;stroke:none;font-family:Helvetica;-inkscape-font-specification:Helvetica" x="0" y="0">8</tspan></text>
</g><path d="m 3668.33,379.168 0,35" id="path120" style="fill:none;stroke:#000000;stroke-width:5;stroke-linecap:butt;stroke-linejoin:round;stroke-miterlimit:10;stroke-opacity:1;stroke-dasharray:none"/><path d="m 3668.33,3118.33 0,-34.16" id="path122" style="fill:none;stroke:#000000;stroke-width:5;stroke-linecap:butt;stroke-linejoin:round;stroke-miterlimit:10;stroke-opacity:1;stroke-dasharray:none"/><g id="g124" transform="scale(10,10)"><text id="text126" transform="matrix(1,0,0,-1,364.083,25.8332)"><tspan id="tspan128" style="font-size:10px;font-variant:normal;font-weight:normal;writing-mode:lr-tb;fill:#000000;fill-opacity:1;fill-rule:nonzero;stroke:none;font-family:Helvetica;-inkscape-font-specification:Helvetica" x="0" y="0">9</tspan></text>
</g><path d="m 4054.17,379.168 0,35" id="path130" style="fill:none;stroke:#000000;stroke-width:5;stroke-linecap:butt;stroke-linejoin:round;stroke-miterlimit:10;stroke-opacity:1;stroke-dasharray:none"/><path d="m 4054.17,3118.33 0,-34.16" id="path132" style="fill:none;stroke:#000000;stroke-width:5;stroke-linecap:butt;stroke-linejoin:round;stroke-miterlimit:10;stroke-opacity:1;stroke-dasharray:none"/><g id="g134" transform="scale(10,10)"><text id="text136" transform="matrix(1,0,0,-1,399.917,25.8332)"><tspan id="tspan138" style="font-size:10px;font-variant:normal;font-weight:normal;writing-mode:lr-tb;fill:#000000;fill-opacity:1;fill-rule:nonzero;stroke:none;font-family:Helvetica;-inkscape-font-specification:Helvetica" x="0 5.5599999" y="0">10</tspan></text>
</g><path d="m 582.5,379.168 34.168,0" id="path140" style="fill:none;stroke:#000000;stroke-width:5;stroke-linecap:butt;stroke-linejoin:round;stroke-miterlimit:10;stroke-opacity:1;stroke-dasharray:none"/><path d="m 4054.17,379.168 -35,0" id="path142" style="fill:none;stroke:#000000;stroke-width:5;stroke-linecap:butt;stroke-linejoin:round;stroke-miterlimit:10;stroke-opacity:1;stroke-dasharray:none"/><g id="g144" transform="scale(10,10)"><text id="text146" transform="matrix(1,0,0,-1,49.8332,34.25)"><tspan id="tspan148" style="font-size:10px;font-variant:normal;font-weight:normal;writing-mode:lr-tb;fill:#000000;fill-opacity:1;fill-rule:nonzero;stroke:none;font-family:Helvetica;-inkscape-font-specification:Helvetica" x="0" y="0">0</tspan></text>
</g><path d="m 582.5,653.332 34.168,0" id="path150" style="fill:none;stroke:#000000;stroke-width:5;stroke-linecap:butt;stroke-linejoin:round;stroke-miterlimit:10;stroke-opacity:1;stroke-dasharray:none"/><path d="m 4054.17,653.332 -35,0" id="path152" style="fill:none;stroke:#000000;stroke-width:5;stroke-linecap:butt;stroke-linejoin:round;stroke-miterlimit:10;stroke-opacity:1;stroke-dasharray:none"/><g id="g154" transform="scale(10,10)"><text id="text156" transform="matrix(1,0,0,-1,41.5,61.6668)"><tspan id="tspan158" style="font-size:10px;font-variant:normal;font-weight:normal;writing-mode:lr-tb;fill:#000000;fill-opacity:1;fill-rule:nonzero;stroke:none;font-family:Helvetica;-inkscape-font-specification:Helvetica" x="0 5.5599999 8.3400002" y="0">0.5</tspan></text>
</g><path d="m 582.5,927.5 34.168,0" id="path160" style="fill:none;stroke:#000000;stroke-width:5;stroke-linecap:butt;stroke-linejoin:round;stroke-miterlimit:10;stroke-opacity:1;stroke-dasharray:none"/><path d="m 4054.17,927.5 -35,0" id="path162" style="fill:none;stroke:#000000;stroke-width:5;stroke-linecap:butt;stroke-linejoin:round;stroke-miterlimit:10;stroke-opacity:1;stroke-dasharray:none"/><g id="g164" transform="scale(10,10)"><text id="text166" transform="matrix(1,0,0,-1,49.8332,89.0832)"><tspan id="tspan168" style="font-size:10px;font-variant:normal;font-weight:normal;writing-mode:lr-tb;fill:#000000;fill-opacity:1;fill-rule:nonzero;stroke:none;font-family:Helvetica;-inkscape-font-specification:Helvetica" x="0" y="0">1</tspan></text>
</g><path d="m 582.5,1201.67 34.168,0" id="path170" style="fill:none;stroke:#000000;stroke-width:5;stroke-linecap:butt;stroke-linejoin:round;stroke-miterlimit:10;stroke-opacity:1;stroke-dasharray:none"/><path d="m 4054.17,1201.67 -35,0" id="path172" style="fill:none;stroke:#000000;stroke-width:5;stroke-linecap:butt;stroke-linejoin:round;stroke-miterlimit:10;stroke-opacity:1;stroke-dasharray:none"/><g id="g174" transform="scale(10,10)"><text id="text176" transform="matrix(1,0,0,-1,41.5,116.5)"><tspan id="tspan178" style="font-size:10px;font-variant:normal;font-weight:normal;writing-mode:lr-tb;fill:#000000;fill-opacity:1;fill-rule:nonzero;stroke:none;font-family:Helvetica;-inkscape-font-specification:Helvetica" x="0 5.5599999 8.3400002" y="0">1.5</tspan></text>
</g><path d="m 582.5,1475 34.168,0" id="path180" style="fill:none;stroke:#000000;stroke-width:5;stroke-linecap:butt;stroke-linejoin:round;stroke-miterlimit:10;stroke-opacity:1;stroke-dasharray:none"/><path d="m 4054.17,1475 -35,0" id="path182" style="fill:none;stroke:#000000;stroke-width:5;stroke-linecap:butt;stroke-linejoin:round;stroke-miterlimit:10;stroke-opacity:1;stroke-dasharray:none"/><g id="g184" transform="scale(10,10)"><text id="text186" transform="matrix(1,0,0,-1,49.8332,143.833)"><tspan id="tspan188" style="font-size:10px;font-variant:normal;font-weight:normal;writing-mode:lr-tb;fill:#000000;fill-opacity:1;fill-rule:nonzero;stroke:none;font-family:Helvetica;-inkscape-font-specification:Helvetica" x="0" y="0">2</tspan></text>
</g><path d="m 582.5,1749.17 34.168,0" id="path190" style="fill:none;stroke:#000000;stroke-width:5;stroke-linecap:butt;stroke-linejoin:round;stroke-miterlimit:10;stroke-opacity:1;stroke-dasharray:none"/><path d="m 4054.17,1749.17 -35,0" id="path192" style="fill:none;stroke:#000000;stroke-width:5;stroke-linecap:butt;stroke-linejoin:round;stroke-miterlimit:10;stroke-opacity:1;stroke-dasharray:none"/><g id="g194" transform="scale(10,10)"><text id="text196" transform="matrix(1,0,0,-1,41.5,171.25)"><tspan id="tspan198" style="font-size:10px;font-variant:normal;font-weight:normal;writing-mode:lr-tb;fill:#000000;fill-opacity:1;fill-rule:nonzero;stroke:none;font-family:Helvetica;-inkscape-font-specification:Helvetica" x="0 5.5599999 8.3400002" y="0">2.5</tspan></text>
</g><path d="m 582.5,2023.33 34.168,0" id="path200" style="fill:none;stroke:#000000;stroke-width:5;stroke-linecap:butt;stroke-linejoin:round;stroke-miterlimit:10;stroke-opacity:1;stroke-dasharray:none"/><path d="m 4054.17,2023.33 -35,0" id="path202" style="fill:none;stroke:#000000;stroke-width:5;stroke-linecap:butt;stroke-linejoin:round;stroke-miterlimit:10;stroke-opacity:1;stroke-dasharray:none"/><g id="g204" transform="scale(10,10)"><text id="text206" transform="matrix(1,0,0,-1,49.8332,198.667)"><tspan id="tspan208" style="font-size:10px;font-variant:normal;font-weight:normal;writing-mode:lr-tb;fill:#000000;fill-opacity:1;fill-rule:nonzero;stroke:none;font-family:Helvetica;-inkscape-font-specification:Helvetica" x="0" y="0">3</tspan></text>
</g><path d="m 582.5,2296.67 34.168,0" id="path210" style="fill:none;stroke:#000000;stroke-width:5;stroke-linecap:butt;stroke-linejoin:round;stroke-miterlimit:10;stroke-opacity:1;stroke-dasharray:none"/><path d="m 4054.17,2296.67 -35,0" id="path212" style="fill:none;stroke:#000000;stroke-width:5;stroke-linecap:butt;stroke-linejoin:round;stroke-miterlimit:10;stroke-opacity:1;stroke-dasharray:none"/><g id="g214" transform="scale(10,10)"><text id="text216" transform="matrix(1,0,0,-1,41.5,226)"><tspan id="tspan218" style="font-size:10px;font-variant:normal;font-weight:normal;writing-mode:lr-tb;fill:#000000;fill-opacity:1;fill-rule:nonzero;stroke:none;font-family:Helvetica;-inkscape-font-specification:Helvetica" x="0 5.5599999 8.3400002" y="0">3.5</tspan></text>
</g><path d="m 582.5,2570.83 34.168,0" id="path220" style="fill:none;stroke:#000000;stroke-width:5;stroke-linecap:butt;stroke-linejoin:round;stroke-miterlimit:10;stroke-opacity:1;stroke-dasharray:none"/><path d="m 4054.17,2570.83 -35,0" id="path222" style="fill:none;stroke:#000000;stroke-width:5;stroke-linecap:butt;stroke-linejoin:round;stroke-miterlimit:10;stroke-opacity:1;stroke-dasharray:none"/><g id="g224" transform="scale(10,10)"><text id="text226" transform="matrix(1,0,0,-1,49.8332,253.417)"><tspan id="tspan228" style="font-size:10px;font-variant:normal;font-weight:normal;writing-mode:lr-tb;fill:#000000;fill-opacity:1;fill-rule:nonzero;stroke:none;font-family:Helvetica;-inkscape-font-specification:Helvetica" x="0" y="0">4</tspan></text>
</g><path d="m 582.5,2845 34.168,0" id="path230" style="fill:none;stroke:#000000;stroke-width:5;stroke-linecap:butt;stroke-linejoin:round;stroke-miterlimit:10;stroke-opacity:1;stroke-dasharray:none"/><path d="m 4054.17,2845 -35,0" id="path232" style="fill:none;stroke:#000000;stroke-width:5;stroke-linecap:butt;stroke-linejoin:round;stroke-miterlimit:10;stroke-opacity:1;stroke-dasharray:none"/><g id="g234" transform="scale(10,10)"><text id="text236" transform="matrix(1,0,0,-1,41.5,280.833)"><tspan id="tspan238" style="font-size:10px;font-variant:normal;font-weight:normal;writing-mode:lr-tb;fill:#000000;fill-opacity:1;fill-rule:nonzero;stroke:none;font-family:Helvetica;-inkscape-font-specification:Helvetica" x="0 5.5599999 8.3400002" y="0">4.5</tspan></text>
</g><path d="m 582.5,3118.33 34.168,0" id="path240" style="fill:none;stroke:#000000;stroke-width:5;stroke-linecap:butt;stroke-linejoin:round;stroke-miterlimit:10;stroke-opacity:1;stroke-dasharray:none"/><path d="m 4054.17,3118.33 -35,0" id="path242" style="fill:none;stroke:#000000;stroke-width:5;stroke-linecap:butt;stroke-linejoin:round;stroke-miterlimit:10;stroke-opacity:1;stroke-dasharray:none"/><g id="g244" transform="scale(10,10)"><text id="text246" transform="matrix(1,0,0,-1,49.8332,308.167)"><tspan id="tspan248" style="font-size:10px;font-variant:normal;font-weight:normal;writing-mode:lr-tb;fill:#000000;fill-opacity:1;fill-rule:nonzero;stroke:none;font-family:Helvetica;-inkscape-font-specification:Helvetica" x="0" y="0">5</tspan></text>
</g><path d="m 582.5,379.168 3471.67,0" id="path250" style="fill:none;stroke:#000000;stroke-width:5;stroke-linecap:butt;stroke-linejoin:round;stroke-miterlimit:10;stroke-opacity:1;stroke-dasharray:none"/><path d="m 582.5,3119.17 3471.67,0" id="path252" style="fill:none;stroke:#000000;stroke-width:5;stroke-linecap:butt;stroke-linejoin:round;stroke-miterlimit:10;stroke-opacity:1;stroke-dasharray:none"/><path d="m 582.5,379.168 0,2740.002" id="path254" style="fill:none;stroke:#000000;stroke-width:5;stroke-linecap:butt;stroke-linejoin:round;stroke-miterlimit:10;stroke-opacity:1;stroke-dasharray:none"/><path d="m 4054.17,379.168 0,2740.002" id="path256" style="fill:none;stroke:#000000;stroke-width:5;stroke-linecap:butt;stroke-linejoin:round;stroke-miterlimit:10;stroke-opacity:1;stroke-dasharray:none"/></g></g><g id="g258"><g clip-path="url(#clipPath262)" id="g260"><path d="m 582.5,379.168 1156.67,0 385.83,5.832 385.83,10.832 385.84,27.5 385.83,136.668 385.83,372.5 385.84,1955.83" id="path266" style="fill:none;stroke:#ff0000;stroke-width:5;stroke-linecap:butt;stroke-linejoin:round;stroke-miterlimit:10;stroke-opacity:1;stroke-dasharray:none"/><path d="m 582.5,379.168 385,0 385.83,0.832 385.84,0.832 385.83,0.836 385.83,2.5 385.84,5.832 385.83,11.668 385.83,35 385.84,107.5" id="path268" style="fill:none;stroke:#0000ff;stroke-width:5;stroke-linecap:butt;stroke-linejoin:round;stroke-miterlimit:10;stroke-opacity:1;stroke-dasharray:none"/></g></g><g id="g270"><g clip-path="url(#clipPath274)" id="g272"><g id="g278" transform="scale(10,10)"><text id="text280" transform="matrix(1,0,0,-1,194.833,13.9168)"><tspan id="tspan282" style="font-size:10px;font-variant:normal;font-weight:normal;writing-mode:lr-tb;fill:#000000;fill-opacity:1;fill-rule:nonzero;stroke:none;font-family:Helvetica;-inkscape-font-specification:Helvetica" x="0 7.2199998 12.78 21.110001 26.67 32.23 35.560001 38.34 43.900002 46.68 49.459999 56.68 58.900002 63.900002 68.900002" y="0">Number of Disks</tspan></text>
<text id="text284" transform="matrix(0,1,1,0,34.6668,121.583)"><tspan id="tspan286" style="font-size:10px;font-variant:normal;font-weight:normal;writing-mode:lr-tb;fill:#000000;fill-opacity:1;fill-rule:nonzero;stroke:none;font-family:Helvetica;-inkscape-font-specification:Helvetica" x="0 6.1100001 8.3299999 16.66 22.219999 25 27.780001 33.34 38.34 43.900002 49.459999 52.240002 55.57 57.790001 63.349998 66.129997 71.129997 76.690002 81.690002 87.25 92.809998 98.370003 103.37" y="0">Time taken (in seconds)</tspan></text>
</g><path d="m 3005,2790 1000,0 0,278.332 -1000,0 0,-278.332 z" id="path288" style="fill:#ffffff;fill-opacity:1;fill-rule:evenodd;stroke:none"/><path d="m 3005,2790 0,278.33 1000,0 0,-278.33 -1000,0" id="path290" style="fill:none;stroke:#ffffff;stroke-width:5;stroke-linecap:butt;stroke-linejoin:round;stroke-miterlimit:10;stroke-opacity:1;stroke-dasharray:none"/><path d="m 3005,2790 1000,0" id="path292" style="fill:none;stroke:#000000;stroke-width:5;stroke-linecap:butt;stroke-linejoin:round;stroke-miterlimit:10;stroke-opacity:1;stroke-dasharray:none"/><path d="m 3005,3068.33 1000,0" id="path294" style="fill:none;stroke:#000000;stroke-width:5;stroke-linecap:butt;stroke-linejoin:round;stroke-miterlimit:10;stroke-opacity:1;stroke-dasharray:none"/><path d="m 3005,2790 0,278.33" id="path296" style="fill:none;stroke:#000000;stroke-width:5;stroke-linecap:butt;stroke-linejoin:round;stroke-miterlimit:10;stroke-opacity:1;stroke-dasharray:none"/><path d="m 4005,2790 0,278.33" id="path298" style="fill:none;stroke:#000000;stroke-width:5;stroke-linecap:butt;stroke-linejoin:round;stroke-miterlimit:10;stroke-opacity:1;stroke-dasharray:none"/><path d="m 3005,2790 1000,0" id="path300" style="fill:none;stroke:#000000;stroke-width:5;stroke-linecap:butt;stroke-linejoin:round;stroke-miterlimit:10;stroke-opacity:1;stroke-dasharray:none"/><path d="m 3005,2790 0,278.33" id="path302" style="fill:none;stroke:#000000;stroke-width:5;stroke-linecap:butt;stroke-linejoin:round;stroke-miterlimit:10;stroke-opacity:1;stroke-dasharray:none"/><path d="m 3005,2790 1000,0" id="path304" style="fill:none;stroke:#000000;stroke-width:5;stroke-linecap:butt;stroke-linejoin:round;stroke-miterlimit:10;stroke-opacity:1;stroke-dasharray:none"/><path d="m 3005,3068.33 1000,0" id="path306" style="fill:none;stroke:#000000;stroke-width:5;stroke-linecap:butt;stroke-linejoin:round;stroke-miterlimit:10;stroke-opacity:1;stroke-dasharray:none"/><path d="m 3005,2790 0,278.33" id="path308" style="fill:none;stroke:#000000;stroke-width:5;stroke-linecap:butt;stroke-linejoin:round;stroke-miterlimit:10;stroke-opacity:1;stroke-dasharray:none"/><path d="m 4005,2790 0,278.33" id="path310" style="fill:none;stroke:#000000;stroke-width:5;stroke-linecap:butt;stroke-linejoin:round;stroke-miterlimit:10;stroke-opacity:1;stroke-dasharray:none"/><g id="g312" transform="scale(10,10)"><text id="text314" transform="matrix(1,0,0,-1,339.417,295.583)"><tspan id="tspan316" style="font-size:10px;font-variant:normal;font-weight:normal;writing-mode:lr-tb;fill:#000000;fill-opacity:1;fill-rule:nonzero;stroke:none;font-family:Helvetica;-inkscape-font-specification:Helvetica" x="0 6.1100001 12.22 15 21.67 23.889999 29.450001 35.009998 40.57 46.130001" y="0">FF Planner</tspan></text>
</g></g></g><g id="g318"><g clip-path="url(#clipPath322)" id="g320"><path d="m 3064.17,2991.67 299.16,0" id="path326" style="fill:none;stroke:#ff0000;stroke-width:5;stroke-linecap:butt;stroke-linejoin:round;stroke-miterlimit:10;stroke-opacity:1;stroke-dasharray:none"/></g></g><g id="g328"><g clip-path="url(#clipPath332)" id="g330"><g id="g336" transform="scale(10,10)"><text id="text338" transform="matrix(1,0,0,-1,339.417,283.167)"><tspan id="tspan340" style="font-size:10px;font-variant:normal;font-weight:normal;writing-mode:lr-tb;fill:#000000;fill-opacity:1;fill-rule:nonzero;stroke:none;font-family:Helvetica;-inkscape-font-specification:Helvetica" x="0 7.2199998 13.33 20.549999 23.33 30 32.220001 37.779999 43.34 48.900002 54.459999" y="0">HTN Planner</tspan></text>
</g></g></g><g id="g342"><g clip-path="url(#clipPath346)" id="g344"><path d="m 3064.17,2867.5 299.16,0" id="path350" style="fill:none;stroke:#0000ff;stroke-width:5;stroke-linecap:butt;stroke-linejoin:round;stroke-miterlimit:10;stroke-opacity:1;stroke-dasharray:none"/></g></g></g></g></svg>